<?xml version="1.0" encoding="UTF-8" standalone="no"?>
<!-- Created with Inkscape (http://www.inkscape.org/) -->

<svg
   width="128"
   height="128"
   viewBox="0 0 33.866666 33.866668"
   version="1.1"
   id="svg5"
   xmlns="http://www.w3.org/2000/svg"
   xmlns:svg="http://www.w3.org/2000/svg">
  <defs
     id="defs2" />
  <g
     id="layer1"
     style="display:inline">
    <g
       id="g81278" />
  </g>
  <g
     id="layer2"
     style="display:inline" />
  <g
     id="layer3"
     style="display:inline" />
  <g
     id="layer4"
     style="display:inline" />
  <g
     id="layer5"
     style="display:inline">
    <g
       id="g1659">
      <g
         id="g8779"
         transform="matrix(1.3087433,0,0,1.3087433,-4.9670975,-5.936529)"
         style="display:inline">
        <path
           id="path3749"
           style="fill:#f9f9f9;stroke-width:0.999999"
           d="m 32.525391,24.042969 c -1.753278,-2.53e-4 -3.174956,1.42055 -3.175782,3.173828 v 75.857423 c 8.25e-4,1.75328 1.422503,3.17408 3.175782,3.17383 h 48.289062 l 8.918946,-7.806642 8.918945,-7.806642 V 27.216797 c -8.26e-4,-1.753278 -1.422504,-3.174081 -3.175782,-3.173828 z"
           transform="scale(0.26458333)" />
        <path
           id="path3922"
           style="fill:#e6e6e6;stroke-width:0.999999"
           d="m 98.652344,90.634766 c 0,0 -11.283432,-0.193571 -13.964924,0.37469 -2.257983,0.605025 -2.841455,1.217458 -3.463307,3.538244 -0.562038,2.079676 -0.40966,11.70035 -0.40966,11.70035 h 0.240989 c 1.004936,1.4e-4 6.638697,-4.37551 11.265032,-8.44097 3.445083,-3.027414 6.331518,-5.882812 6.33187,-6.631156 z"
           transform="scale(0.26458333)" />
      </g>
      <path
         style="display:inline;fill:#484848;fill-opacity:1;stroke:none;stroke-width:0.292355;stroke-miterlimit:4;stroke-dasharray:none;stroke-opacity:1"
         id="path80631"
         d="M 8.1174495,20.697194 C 7.8471566,20.639805 7.6277771,20.459044 7.4100803,20.300054 6.879258,19.912173 6.4509759,19.406847 6.0535627,18.888144 5.7625777,18.486076 5.4948893,18.066027 5.2737562,17.621221 5.1331982,17.338489 5.0840626,17.210148 4.9609029,16.919355 4.6695244,16.215899 4.5121625,15.497907 4.4091092,14.746973 c -0.065839,-0.5728 -0.069136,-1.156511 0.050568,-1.722996 0.023364,-0.110568 0.056551,-0.218829 0.084828,-0.328245 0.088754,-0.261221 0.125411,-0.39786 0.2492001,-0.646158 0.052542,-0.105393 0.2282511,-0.411971 0.1743413,-0.307273 C 2.7169001,16.114237 3.3176792,14.599158 3.935462,13.840515 4.01221,13.746265 4.0975433,13.659352 4.1785837,13.568771 4.5430266,13.208 4.9690822,12.913665 5.4382684,12.705406 5.7373012,12.572673 5.9026201,12.5328 6.2159724,12.437167 6.8031931,12.279912 7.4100487,12.212722 8.017511,12.226465 c 0.4049004,0.0091 0.5701556,0.0383 0.9740779,0.08564 0.8931257,0.139767 1.7596261,0.421502 2.5815821,0.795208 0.177046,0.08049 0.350128,0.169437 0.525193,0.254157 1.118198,0.556208 2.121234,1.306554 3.119325,2.049553 0.53151,0.419642 1.059891,0.844055 1.580477,1.277238 0.75119,0.625071 0.311423,0.274875 1.051038,0.904727 0.175076,0.149094 0.353503,0.294206 0.530254,0.44131 0.988277,0.795932 1.982616,1.584281 2.970183,2.381114 0.518892,0.392837 1.063643,0.760375 1.654219,1.038068 0.321553,0.151196 0.481909,0.198824 0.814176,0.316394 0.645884,0.196998 1.328384,0.257371 2.001826,0.24874 0.122396,-0.0015 0.244594,-0.01026 0.366891,-0.01541 0.526183,-0.0509 1.070297,-0.0933 1.56437,-0.298099 0.08836,-0.03663 0.172236,-0.08323 0.258354,-0.124842 0.521103,-0.298853 0.91957,-0.744868 1.284088,-1.213071 0.788897,-1.083758 1.31897,-2.315085 1.942146,-3.507169 0.122784,-0.234878 0.201271,-0.570032 0.268823,-0.826658 0.08493,-0.370646 0.152686,-0.745744 0.163544,-1.126582 0.0064,-0.226644 -0.0014,-0.332299 -0.0099,-0.558773 -0.0216,-0.461385 -0.103172,-0.92193 -0.254634,-1.359013 -0.03173,-0.09155 -0.06986,-0.180773 -0.104774,-0.271159 -0.2676,-0.624775 -0.581625,-1.229048 -0.889184,-1.834984 -0.2645,-0.511709 -0.57742,-0.995419 -0.894415,-1.4755366 0,0 -1.547583,2.6798026 -1.547583,2.6798026 v 0 c 0.3104,0.473638 0.615332,0.951511 0.882527,1.451288 0.122074,0.230995 0.207907,0.387301 0.319945,0.62413 0.194353,0.41082 0.35123,0.838103 0.496857,1.268223 0.155377,0.52734 0.284623,1.062352 0.2889,1.615896 0.005,0.554598 -0.04453,1.094831 -0.198148,1.630335 -0.07441,0.240408 -0.09129,0.316429 -0.190082,0.549046 -0.03745,0.08817 -0.167542,0.344438 -0.121813,0.260271 2.470807,-4.547633 1.664957,-2.971016 1.047685,-2.042124 -0.338638,0.471016 -0.703124,0.903411 -1.187828,1.232339 -0.220946,0.132922 -0.261959,0.169225 -0.504123,0.267189 -0.41048,0.166054 -0.851577,0.242312 -1.287161,0.306853 -0.121586,0.01275 -0.24287,0.02887 -0.364763,0.03826 -0.660373,0.05084 -1.327113,0.0089 -1.969247,-0.158496 -0.134252,-0.03952 -0.26991,-0.07454 -0.402755,-0.118561 -0.744471,-0.246667 -1.436055,-0.626207 -2.0963,-1.044571 -1.058191,-0.674504 -2.095547,-1.384314 -3.059268,-2.190248 -0.351497,-0.29405 -0.704887,-0.585846 -1.05468,-0.88192 -0.699265,-0.591877 -1.373554,-1.212805 -2.089179,-1.785458 -0.170411,-0.140559 -0.337781,-0.284885 -0.51123,-0.421676 -0.817362,-0.644608 -1.69218,-1.216005 -2.591906,-1.737923 -0.514872,-0.264349 -1.02955,-0.533555 -1.570347,-0.742577 C 11.30772,10.015332 10.791647,9.870723 10.27198,9.7559757 10.10672,9.7284281 9.9423798,9.694625 9.7761993,9.6733216 9.0115438,9.5752961 8.2299957,9.5868535 7.4731649,9.7357644 7.0757529,9.8350224 6.678613,9.939828 6.3063449,10.115987 c -0.3437073,0.162645 -0.6524651,0.389249 -0.942532,0.632427 -0.086644,0.08542 -0.1779552,0.166336 -0.2599324,0.256236 -0.7866348,0.862672 -1.6998529,2.968482 -1.8640827,3.271945 -0.171392,0.316695 -0.3015538,0.651377 -0.3886656,1.000913 -0.024204,0.11492 -0.0535,0.228885 -0.07261,0.344761 -0.094562,0.573387 -0.067969,1.161518 0.018249,1.733666 0.1304246,0.740555 0.3195815,1.46832 0.6207184,2.159839 0.051689,0.12151 0.1004229,0.244322 0.1550706,0.36453 0.2656564,0.584372 0.5871968,1.143086 0.9639128,1.662835 0.1558653,0.209166 0.283147,0.384245 0.4469968,0.587158 0.2766001,0.342545 0.5806621,0.662094 0.8512247,1.009644 0.1982105,0.224482 0.4076098,0.443109 0.5701601,0.695771 0,0 1.7126545,-3.138509 1.7126545,-3.138509 z" />
      <g
         id="g81254">
        <g
           id="g81221">
          <g
             id="g79940"
             transform="matrix(-1,0,0,1,34.62675,-20.729099)">
            <path
               id="path27867"
               style="display:inline;fill:#d46d29;fill-opacity:1;stroke:none;stroke-width:1.43814px;stroke-linecap:butt;stroke-linejoin:miter;stroke-opacity:1"
               d="m 50.244141,112.70508 v -4.52344 h -2.324219 v 4.75586 c 0.357397,-0.1503 0.750079,-0.23242 1.162109,-0.23242 z"
               transform="scale(0.26458333)" />
            <path
               id="path76370"
               style="display:inline;fill:#c25b16;fill-opacity:1;stroke:none;stroke-width:1.43814px;stroke-linecap:butt;stroke-linejoin:miter;stroke-opacity:1"
               d="m 44.283203,82.296875 c -0.333581,-0.01398 -0.663194,0.07624 -0.943359,0.257813 L 12.886719,100.74609 c 4.69e-4,0.85849 7.48e-4,1.89735 0,2.52149 -7.47e-4,0.62413 0.293503,1.24755 0.884765,1.63086 l 29.794922,19.34375 c 1.084007,0.70316 2.515996,-0.0751 2.515625,-1.36719 v -7.16992 c 0,-1.24482 0.758125,-2.31351 1.837891,-2.76758 v -4.75586 h 2.324219 v 4.52344 h 22.908203 c 1.656854,0 3,-1.34315 3,-3 V 96.824219 c 0,-1.656854 -1.343146,-3 -3,-3 H 48.710938 c -1.651121,-2.27e-4 -2.984078,-1.348989 -2.964844,-3 l 0.08008,-6.898438 c 0.0102,-0.870584 -0.673118,-1.591783 -1.542969,-1.628906 z"
               transform="scale(0.26458333)" />
            <path
               id="path21928"
               style="display:inline;fill:#ff7f2a;fill-opacity:1;stroke:none;stroke-width:0.380509px;stroke-linecap:butt;stroke-linejoin:miter;stroke-opacity:1"
               d="m 3.6436697,27.046174 7.8831263,5.118137 a 0.43102722,0.43102722 151.49687 0 0 0.665742,-0.361515 v -1.897274 a 0.79375,0.79375 135 0 1 0.79375,-0.79375 h 6.368495 a 0.79375,0.79375 135 0 0 0.79375,-0.79375 v -3.408166 a 0.79375,0.79375 45 0 0 -0.79375,-0.79375 h -6.46653 a 0.78461001,0.78461001 45.331786 0 1 -0.784557,-0.793697 l 0.02113,-1.824791 a 0.42645488,0.42645488 28.911198 0 0 -0.657698,-0.363237 l -7.8223137,5.049098 a 0.51384306,0.51384306 90.076283 0 0 -0.00115,0.862695 z" />
          </g>
          <g
             id="g79933"
             transform="matrix(-1,0,0,1,33.914625,20.039171)">
            <path
               id="path28322"
               style="display:inline;fill:#3988d4;fill-opacity:1;stroke:none;stroke-width:1.43814px;stroke-linecap:butt;stroke-linejoin:miter;stroke-opacity:1"
               d="M 80.205078,37.046875 V 32.289062 H 77.878906 V 36.8125 h 1.164063 c 0.412643,0 0.804285,0.08366 1.162109,0.234375 z"
               transform="scale(0.26458333)" />
            <path
               id="path76373"
               style="display:inline;fill:#2971b6;fill-opacity:1;stroke:none;stroke-width:1.43814px;stroke-linecap:butt;stroke-linejoin:miter;stroke-opacity:1"
               d="m 83.904297,6.4023438 c -0.02081,6.3e-5 -0.04165,0.00108 -0.0625,0.00195 -0.869851,0.037123 -1.553174,0.7583223 -1.542969,1.6289062 l 0.08008,6.898438 c 0.01923,1.651011 -1.313723,2.999772 -2.964844,3 H 54.972656 c -1.656854,0 -3,1.343146 -3,3 V 33.8125 c 0,1.65685 1.343146,3 3,3 h 22.90625 v -4.523438 h 2.326172 v 4.757813 c 1.078918,0.454455 1.837891,1.521417 1.837891,2.765625 v 7.169922 c -3.71e-4,1.292088 1.431618,2.07035 2.515625,1.367187 l 29.794926,-19.34375 c 0.59124,-0.383309 0.88551,-1.006729 0.88476,-1.630859 -7.5e-4,-0.62414 -4.7e-4,-1.662995 0,-2.521484 L 84.785156,6.6621094 C 84.522502,6.4918854 84.216398,6.4013984 83.904297,6.4023438 Z"
               transform="scale(0.26458333)" />
            <path
               id="path68777"
               style="display:inline;fill:#2a98ff;fill-opacity:1;stroke:none;stroke-width:0.380509px;stroke-linecap:butt;stroke-linejoin:miter;stroke-opacity:1"
               d="m 3.6436697,27.046174 7.8831263,5.118137 a 0.43102722,0.43102722 151.49687 0 0 0.665742,-0.361515 v -1.897274 a 0.79375,0.79375 135 0 1 0.79375,-0.79375 h 6.368495 a 0.79375,0.79375 135 0 0 0.79375,-0.79375 v -3.408166 a 0.79375,0.79375 45 0 0 -0.79375,-0.79375 h -6.46653 a 0.78461001,0.78461001 45.331786 0 1 -0.784557,-0.793697 l 0.02113,-1.824791 a 0.42645488,0.42645488 28.911198 0 0 -0.657698,-0.363237 l -7.8223137,5.049098 a 0.51384306,0.51384306 90.076283 0 0 -0.00115,0.862695 z"
               transform="matrix(-1,0,0,1,33.899518,-20.03917)" />
          </g>
        </g>
      </g>
    </g>
  </g>
</svg>
